<svg width="13" height="22" viewBox="0 0 13 22" fill="none" xmlns="http://www.w3.org/2000/svg">
<path d="M0.874998 11.9027L0.875203 11.9029L10.1258 21.1279L10.1259 21.128C10.6245 21.6249 11.4315 21.624 11.9291 21.1255L11.9292 21.1254C12.4267 20.6267 12.4253 19.8191 11.9267 19.3219L11.9267 19.3219L3.58178 11L11.927 2.67813L11.9271 2.67807C12.4255 2.18085 12.427 1.37364 11.9296 0.874884L11.9294 0.874722C11.6803 0.625191 11.3527 0.500027 11.0264 0.500027C10.7011 0.500027 10.3747 0.624342 10.1259 0.872248L10.1258 0.872347L0.875616 10.0967C0.635019 10.3361 0.500377 10.6614 0.500377 11C0.500377 11.3391 0.635645 11.6637 0.874998 11.9027Z" fill="black" stroke="black"/>
</svg>
