<?xml version="1.0" encoding="utf-8"?>
<!-- Generator: Adobe Illustrator 23.0.2, SVG Export Plug-In . SVG Version: 6.00 Build 0)  -->
<svg version="1.1" id="b3df86d2-2022-47c6-a781-bb5144daf06b"
	 xmlns="http://www.w3.org/2000/svg" xmlns:xlink="http://www.w3.org/1999/xlink" x="0px" y="0px" viewBox="0 0 802 590.9"
	 style="enable-background:new 0 0 802 590.9;" xml:space="preserve">
<style type="text/css">
	.st0{fill:#E6E6E6;}
	.st1{fill:#CCCCCC;}
	.st2{fill:#EE2E2A;}
	.st3{opacity:0.2;enable-background:new    ;}
	.st4{fill:#2F2E41;}
	.st5{fill:#A0616A;}
	.st6{fill:#575A89;}
	.st7{fill:#3F3D56;}
	.st8{fill:#FFFFFF;}
	.st9{fill:#B3B3B3;}
	.st10{fill:#D0CDE1;}
</style>
<title>researching</title>
<rect x="0" y="218.8" class="st0" width="337.1" height="9.9"/>
<rect x="223.8" y="136.1" class="st0" width="85.4" height="85.4"/>
<rect x="240.9" y="153.2" class="st1" width="51.2" height="51.2"/>
<rect x="96.2" y="136.1" class="st0" width="21.6" height="85.4"/>
<rect x="96.2" y="149.6" class="st1" width="21.6" height="9.9"/>
<rect x="96.2" y="192.7" class="st1" width="21.6" height="9.9"/>
<rect x="129.5" y="136.1" class="st0" width="21.6" height="85.4"/>
<rect x="129.5" y="149.6" class="st1" width="21.6" height="9.9"/>
<rect x="129.5" y="192.7" class="st1" width="21.6" height="9.9"/>
<rect x="25.6" y="168" transform="matrix(0.4437 -0.8962 0.8962 0.4437 -122.2307 160.6997)" class="st0" width="85.4" height="21.6"/>
<rect x="74.1" y="146.3" transform="matrix(0.4437 -0.8962 0.8962 0.4437 -96.745 158.25)" class="st1" width="9.9" height="21.6"/>
<rect x="55" y="184.9" transform="matrix(0.4437 -0.8962 0.8962 0.4437 -142.0528 162.605)" class="st1" width="9.9" height="21.6"/>
<polygon class="st0" points="288.2,189.2 299.1,208 277.3,208 255.6,208 266.5,189.2 277.3,170.4 "/>
<polygon class="st0" points="269.3,192.8 280.2,211.6 258.5,211.6 236.7,211.6 247.6,192.8 258.5,174 "/>
<circle class="st0" cx="250.8" cy="162.2" r="6.3"/>
<rect x="0" y="83.1" class="st0" width="337.1" height="9.9"/>
<rect x="27.9" y="0.4" class="st0" width="85.4" height="85.4"/>
<rect x="44.9" y="17.4" class="st1" width="51.2" height="51.2"/>
<rect x="219.4" y="0.4" class="st0" width="21.6" height="85.4"/>
<rect x="219.4" y="13.8" class="st1" width="21.6" height="9.9"/>
<rect x="219.4" y="57" class="st1" width="21.6" height="9.9"/>
<rect x="186.1" y="0.4" class="st0" width="21.6" height="85.4"/>
<rect x="186.1" y="13.8" class="st1" width="21.6" height="9.9"/>
<rect x="186.1" y="57" class="st1" width="21.6" height="9.9"/>
<rect x="258" y="0.4" transform="matrix(0.8962 -0.4437 0.4437 0.8962 8.8034 123.7332)" class="st0" width="21.6" height="85.4"/>
<rect x="247.2" y="16.4" transform="matrix(0.8962 -0.4437 0.4437 0.8962 17.3368 116.6965)" class="st1" width="21.6" height="9.9"/>
<rect x="266.4" y="55" transform="matrix(0.8962 -0.4437 0.4437 0.8962 2.1663 129.2063)" class="st1" width="21.6" height="9.9"/>
<polygon class="st0" points="48.9,53.5 38.1,72.3 59.8,72.3 81.5,72.3 70.6,53.5 59.8,34.6 "/>
<polygon class="st0" points="67.8,57 56.9,75.9 78.7,75.9 100.4,75.9 89.5,57 78.7,38.2 "/>
<ellipse transform="matrix(0.9999 -1.110905e-02 1.110905e-02 0.9999 -0.2882 0.9604)" class="st0" cx="86.3" cy="26.4" rx="6.3" ry="6.3"/>
<rect x="0" y="354.6" class="st0" width="337.1" height="9.9"/>
<rect x="27.9" y="271.8" class="st0" width="85.4" height="85.4"/>
<rect x="44.9" y="288.9" class="st1" width="51.2" height="51.2"/>
<rect x="219.4" y="271.8" class="st0" width="21.6" height="85.4"/>
<rect x="219.4" y="285.3" class="st1" width="21.6" height="9.9"/>
<rect x="219.4" y="328.5" class="st1" width="21.6" height="9.9"/>
<rect x="186.1" y="271.8" class="st0" width="21.6" height="85.4"/>
<rect x="186.1" y="285.3" class="st1" width="21.6" height="9.9"/>
<rect x="186.1" y="328.5" class="st1" width="21.6" height="9.9"/>
<rect x="258" y="271.8" transform="matrix(0.8962 -0.4437 0.4437 0.8962 -111.6564 151.9199)" class="st0" width="21.6" height="85.4"/>
<rect x="247.2" y="287.9" transform="matrix(0.8962 -0.4437 0.4437 0.8962 -103.1231 144.8831)" class="st1" width="21.6" height="9.9"/>
<rect x="266.4" y="326.5" transform="matrix(0.8962 -0.4437 0.4437 0.8962 -118.2935 157.3929)" class="st1" width="21.6" height="9.9"/>
<polygon class="st0" points="48.9,324.9 38.1,343.8 59.8,343.8 81.5,343.8 70.6,324.9 59.8,306.1 "/>
<polygon class="st0" points="67.8,328.5 56.9,347.4 78.7,347.4 100.4,347.4 89.5,328.5 78.7,309.7 "/>
<circle class="st0" cx="86.3" cy="297.9" r="6.3"/>
<ellipse class="st0" cx="404.9" cy="562.7" rx="397.1" ry="28.2"/>
<path class="st2" d="M126.5,492.8c73.5,12.2,82.7,13.6,148.8,0c-33.9,28.6-4.6,57.2,29.2,85.7c-74.3-9.6-145.1-11.5-209.8,0
	C111.7,549.9,143.6,521.3,126.5,492.8z"/>
<path class="st3" d="M126.5,492.8c73.5,12.2,82.7,13.6,148.8,0c-33.9,28.6-4.6,57.2,29.2,85.7c-74.3-9.6-145.1-11.5-209.8,0
	C111.7,549.9,143.6,521.3,126.5,492.8z"/>
<path class="st2" d="M137.5,497.9c62.4,9.8,70.3,10.9,126.4,0c-28.8,22.8-3.9,45.6,24.8,68.4c-63.1-7.7-123.2-9.2-178.3,0
	C124.9,543.5,152,520.7,137.5,497.9z"/>
<ellipse transform="matrix(0.1602 -0.9871 0.9871 0.1602 -383.4439 549.804)" class="st4" cx="131.4" cy="500.2" rx="29.3" ry="29.3"/>
<polygon class="st5" points="265.6,466.2 297.2,466.2 263.3,517 234,499 244.1,469.6 264.4,466.2 "/>
<circle class="st5" cx="206.9" cy="464" r="47.4"/>
<path class="st4" d="M488.9,338.8c15.8,13.5,107.2-1.1,116.2-4.5c9-3.4,21.4,0,21.4,0c5.2-2.9,9.7-6.7,13.5-11.3
	c6.8-7.9-6.8-25.9-6.8-25.9s-9,2.3-29.3,4.5s-135.4-10.2-135.4-10.2S473.2,325.2,488.9,338.8z"/>
<path class="st4" d="M460.7,470.8l35-67.7c0,0,2.3-22.6,29.3-55.3c27.1-32.7,42.9,0,42.9,0s42.3,86.3,43.4,98.7
	c1.1,12.4,18.6,64.9,18.6,64.9v10.2l-32.7,3.4c0,0-1.1-2.3,0-7.9c1.1-5.6-20.9-61.5-27.1-67.7c-5.4-5.4-20.3-31.6-20.3-31.6v9
	C536.3,521.5,460.7,543,460.7,543V470.8z"/>
<path class="st4" d="M618.2,332.9c-2.7,2,9.5,16,19.6,21.7s46.3-48.5,54.2-73.3s-25.9,0-25.9,0L630,293.6
	C639,316.2,620.9,330.9,618.2,332.9z"/>
<path class="st4" d="M595,521.2c-2.9-0.4-3.9,15.3-1.2,24.8c2.7,9.5,56.9-1.4,76.6-11.5c19.7-10.2-15.6-15.6-15.6-15.6l-29.1-14.2
	C617.5,523.7,597.8,521.7,595,521.2z"/>
<path class="st6" d="M375,438c0,0-15.8,23.7-42.9,15.8s-58.7,3.4-68.8,4.5c-10.2,1.1-10.2,10.2-10.2,10.2l29.3,2.3l-36.1,40.6
	c0,0-6.8,0,6.8,24.8c13.5,24.8,187.3,22.6,212.1,9c24.8-13.5,10.2-76.7,10.2-76.7L375,438z"/>
<polygon class="st7" points="358.1,265.4 381.8,360.2 513.8,376 494.6,271.1 "/>
<polygon class="st8" points="363.2,269.4 386.3,354.6 506.4,368.7 490.6,275 "/>
<polygon class="st9" points="475.4,473 476.5,479.6 479.9,480.9 516,380.5 513.8,376 509.3,377.1 "/>
<polygon class="st10" points="381.8,360.2 341.2,459.5 477.7,479.8 513.8,374.9 "/>
<polygon class="st7" points="396.4,360.2 395.3,365.8 495.7,377.1 495.7,371.5 "/>
<polygon class="st7" points="393.1,372.6 375,414.4 477.7,426.8 493.5,382.8 "/>
<path class="st5" d="M366,452.7h13.5c0,0,41.7-44,28.2-53s-39.5,36.1-39.5,36.1l-3.4,9L366,452.7z"/>
<path class="st5" d="M428,449.3l-1.1-9c0,0,4.5-39.5,20.3-41.7S454,438,454,438l-3.4,13.5L428,449.3z"/>
<path class="st6" d="M412.2,522.7l-95.9-10.2c0,0-22.6-4.5-37.2,30.5s125.2,20.3,153.4,16.9S455.1,455,454,448.2s-30.5-2.3-30.5-2.3
	L412.2,522.7z"/>
<polygon class="st6" points="359.8,480.4 384.6,453.3 364.8,438 334.9,458.9 "/>
<polygon class="st3" points="400.4,516.5 332.7,517.6 410.5,522.1 415.1,479.2 "/>
<circle class="st4" cx="183.5" cy="472.6" r="56.4"/>
<polygon class="st2" points="469.2,281.7 397,279.5 403.8,305.3 473.7,307.7 "/>
<polygon class="st0" points="490.6,318.2 384.6,314.5 385.7,319 491.8,322.4 "/>
<polygon class="st0" points="492.9,329.5 386.8,325.8 388,330.3 494,333.7 "/>
<polygon class="st0" points="494,338.5 388,334.8 389.1,339.3 495.2,342.7 "/>
</svg>
