<svg width="280" height="38" viewBox="0 0 280 38" fill="none" xmlns="http://www.w3.org/2000/svg">
<path d="M3.822 24.137C3.822 24.0003 3.76733 23.891 3.658 23.809C3.576 23.6997 3.46667 23.645 3.33 23.645H2.797C1.53967 23.645 0.911 22.989 0.911 21.677V20.98C0.911 19.6953 1.53967 19.053 2.797 19.053H3.33C3.46667 19.053 3.576 19.012 3.658 18.93C3.76733 18.8207 3.822 18.6977 3.822 18.561V14.461C3.822 14.3243 3.76733 14.215 3.658 14.133C3.576 14.0237 3.46667 13.969 3.33 13.969H2.797C1.53967 13.969 0.911 13.313 0.911 12.001V11.427C0.911 10.1423 1.53967 9.5 2.797 9.5H3.33C3.46667 9.5 3.576 9.459 3.658 9.377C3.76733 9.26767 3.822 9.14467 3.822 9.008V5.605C3.822 4.211 4.57367 3.514 6.077 3.514H6.692C8.14067 3.514 8.865 4.211 8.865 5.605V9.008C8.865 9.336 9.029 9.5 9.357 9.5H11.653C11.981 9.5 12.145 9.336 12.145 9.008V5.605C12.145 4.211 12.8967 3.514 14.4 3.514H15.015C16.4637 3.514 17.188 4.211 17.188 5.605V9.008C17.188 9.14467 17.229 9.26767 17.311 9.377C17.4203 9.459 17.5433 9.5 17.68 9.5H18.213C19.4703 9.5 20.099 10.156 20.099 11.468V12.042C20.099 13.3267 19.4703 13.969 18.213 13.969H17.68C17.5433 13.969 17.4203 14.0237 17.311 14.133C17.229 14.215 17.188 14.3243 17.188 14.461V18.561C17.188 18.6977 17.229 18.8207 17.311 18.93C17.4203 19.012 17.5433 19.053 17.68 19.053H18.213C19.4703 19.053 20.099 19.6953 20.099 20.98V21.677C20.099 22.989 19.4703 23.645 18.213 23.645H17.68C17.5433 23.645 17.4203 23.6997 17.311 23.809C17.229 23.891 17.188 24.0003 17.188 24.137V27.991C17.188 29.385 16.4363 30.082 14.933 30.082H14.318C12.8693 30.082 12.145 29.385 12.145 27.991V24.137C12.145 23.809 11.981 23.645 11.653 23.645H9.357C9.029 23.645 8.865 23.809 8.865 24.137V27.991C8.865 29.385 8.11333 30.082 6.61 30.082H5.995C4.54633 30.082 3.822 29.385 3.822 27.991V24.137ZM11.653 19.053C11.7897 19.053 11.899 19.012 11.981 18.93C12.0903 18.8207 12.145 18.6977 12.145 18.561V14.461C12.145 14.133 11.981 13.969 11.653 13.969H9.357C9.029 13.969 8.865 14.133 8.865 14.461V18.561C8.865 18.889 9.029 19.053 9.357 19.053H11.653ZM25.2736 12.288C25.2736 11.2767 25.5333 10.5523 26.0526 10.115C26.572 9.65033 27.31 9.418 28.2666 9.418H29.0866C30.0433 9.418 30.7676 9.65033 31.2596 10.115C31.779 10.5523 32.0386 11.2767 32.0386 12.288V21.759C32.0386 23.071 32.189 23.9867 32.4896 24.506C32.7903 25.0253 33.4463 25.285 34.4576 25.285C34.977 25.285 35.4006 25.1893 35.7286 24.998C36.084 24.8067 36.3983 24.547 36.6716 24.219C36.863 24.0003 36.9586 23.727 36.9586 23.399V12.288C36.9586 11.2767 37.2183 10.5523 37.7376 10.115C38.257 9.65033 38.995 9.418 39.9516 9.418H40.7716C41.7283 9.418 42.4526 9.65033 42.9446 10.115C43.464 10.5523 43.7236 11.2767 43.7236 12.288V27.376C43.7236 28.3873 43.4503 29.1527 42.9036 29.672C42.3843 30.164 41.6463 30.41 40.6896 30.41H39.9516C39.487 30.41 39.118 30.3417 38.8446 30.205C38.5713 30.0957 38.339 29.9453 38.1476 29.754C37.9836 29.5627 37.847 29.344 37.7376 29.098C37.6556 28.8247 37.5736 28.565 37.4916 28.319L37.4096 28.032C37.355 27.8953 37.3003 27.827 37.2456 27.827C37.191 27.827 37.1226 27.8817 37.0406 27.991C35.7833 29.6583 34.0613 30.492 31.8746 30.492C30.8906 30.492 29.9886 30.3553 29.1686 30.082C28.3486 29.836 27.6516 29.426 27.0776 28.852C26.5036 28.278 26.0526 27.54 25.7246 26.638C25.424 25.7087 25.2736 24.588 25.2736 23.276V12.288ZM46.7974 12.001C46.7154 11.7277 46.6744 11.4543 46.6744 11.181C46.6744 10.689 46.811 10.2653 47.0844 9.91C47.385 9.55467 47.8907 9.377 48.6014 9.377H50.8154C51.5807 9.377 52.1684 9.56833 52.5784 9.951C52.9884 10.3337 53.2617 10.9077 53.3984 11.673L55.5304 22.087C55.5577 22.2237 55.585 22.3057 55.6124 22.333C55.6397 22.3603 55.667 22.374 55.6944 22.374L55.7354 22.333C55.7627 22.3057 55.8037 22.2237 55.8584 22.087L58.6464 11.673C58.783 11.181 59.0154 10.7847 59.3434 10.484C59.6714 10.1833 60.095 10.033 60.6144 10.033H62.4594C62.9787 10.033 63.4024 10.1833 63.7304 10.484C64.0857 10.7847 64.3317 11.181 64.4684 11.673L67.2564 22.087C67.311 22.2237 67.3384 22.3057 67.3384 22.333L67.4204 22.374C67.4477 22.374 67.475 22.3603 67.5024 22.333C67.5297 22.3057 67.557 22.2237 67.5844 22.087L69.7984 11.591C69.9624 10.8257 70.222 10.2653 70.5774 9.91C70.96 9.55467 71.5204 9.377 72.2584 9.377H74.3084C74.937 9.377 75.388 9.541 75.6614 9.869C75.962 10.197 76.1124 10.5933 76.1124 11.058C76.1124 11.3313 76.0714 11.591 75.9894 11.837L71.9304 27.909C71.575 29.2757 70.6184 29.959 69.0604 29.959H66.5594C64.9194 29.959 63.9354 29.2757 63.6074 27.909L61.3934 19.053C61.3387 18.8617 61.284 18.766 61.2294 18.766C61.1747 18.766 61.12 18.8617 61.0654 19.053L58.8514 27.909C58.496 29.2757 57.5804 29.959 56.1044 29.959H53.6854C52.9474 29.959 52.3324 29.7813 51.8404 29.426C51.3484 29.0707 51.0204 28.565 50.8564 27.909L46.7974 12.001ZM77.7418 19.75C77.7418 17.7547 78.0151 16.0737 78.5618 14.707C79.1085 13.3403 79.8328 12.2333 80.7348 11.386C81.6368 10.5387 82.6618 9.93733 83.8098 9.582C84.9851 9.19933 86.1878 9.008 87.4178 9.008C88.7025 9.008 89.9188 9.18567 91.0668 9.541C92.2421 9.869 93.2671 10.443 94.1418 11.263C95.0438 12.083 95.7545 13.19 96.2738 14.584C96.8205 15.9507 97.0938 17.6727 97.0938 19.75C97.0938 21.7453 96.8205 23.4263 96.2738 24.793C95.7271 26.1597 95.0028 27.2667 94.1008 28.114C93.1988 28.9613 92.1601 29.5763 90.9848 29.959C89.8368 30.3143 88.6478 30.492 87.4178 30.492C86.1331 30.492 84.9031 30.328 83.7278 30C82.5798 29.672 81.5548 29.098 80.6528 28.278C79.7781 27.458 79.0675 26.3647 78.5208 24.998C78.0015 23.604 77.7418 21.8547 77.7418 19.75ZM87.4178 25.326C87.9098 25.326 88.3335 25.2713 88.6888 25.162C89.0715 25.0253 89.3858 24.7657 89.6318 24.383C89.9051 24.0003 90.0965 23.44 90.2058 22.702C90.3425 21.964 90.4108 20.98 90.4108 19.75C90.4108 18.52 90.3425 17.536 90.2058 16.798C90.0965 16.06 89.9051 15.4997 89.6318 15.117C89.3858 14.7343 89.0715 14.4883 88.6888 14.379C88.3335 14.2423 87.9098 14.174 87.4178 14.174C86.9258 14.174 86.4885 14.2423 86.1058 14.379C85.7505 14.4883 85.4361 14.7343 85.1628 15.117C84.9168 15.4997 84.7255 16.06 84.5888 16.798C84.4795 17.536 84.4248 18.52 84.4248 19.75C84.4248 20.98 84.4795 21.964 84.5888 22.702C84.7255 23.44 84.9168 24.0003 85.1628 24.383C85.4361 24.7657 85.7505 25.0253 86.1058 25.162C86.4885 25.2713 86.9258 25.326 87.4178 25.326ZM100.352 4.006C100.352 2.99467 100.611 2.27033 101.131 1.833C101.65 1.36833 102.402 1.136 103.386 1.136H104.124C105.08 1.136 105.818 1.36833 106.338 1.833C106.857 2.27033 107.117 2.99467 107.117 4.006V27.212C107.117 28.2233 106.857 28.9613 106.338 29.426C105.818 29.8633 105.08 30.082 104.124 30.082H103.345C102.388 30.082 101.65 29.8633 101.131 29.426C100.611 28.9613 100.352 28.2233 100.352 27.212V4.006ZM111.563 12.124C111.563 11.1127 111.822 10.3883 112.342 9.951C112.861 9.48633 113.613 9.254 114.597 9.254H115.212C116.114 9.254 116.715 9.44533 117.016 9.828C117.344 10.1833 117.576 10.5933 117.713 11.058L117.795 11.345C117.849 11.509 117.904 11.591 117.959 11.591C118.013 11.591 118.054 11.591 118.082 11.591C118.109 11.5637 118.164 11.4953 118.246 11.386C118.984 10.4293 119.817 9.80067 120.747 9.5C121.703 9.172 122.66 9.008 123.617 9.008C125.995 9.008 127.703 9.67767 128.742 11.017C129.78 12.329 130.3 14.215 130.3 16.675V27.212C130.3 28.2233 130.04 28.9613 129.521 29.426C129.001 29.8633 128.263 30.082 127.307 30.082H126.528C125.571 30.082 124.833 29.8633 124.314 29.426C123.794 28.9613 123.535 28.2233 123.535 27.212V18.028C123.535 16.6067 123.357 15.6227 123.002 15.076C122.646 14.502 121.908 14.215 120.788 14.215C119.831 14.215 119.093 14.5703 118.574 15.281C118.41 15.4997 118.328 15.7593 118.328 16.06V27.212C118.328 28.2233 118.068 28.9613 117.549 29.426C117.029 29.8633 116.291 30.082 115.335 30.082H114.556C113.599 30.082 112.861 29.8633 112.342 29.426C111.822 28.9613 111.563 28.2233 111.563 27.212V12.124ZM137.949 7.04C136.801 7.04 135.913 6.794 135.284 6.302C134.655 5.78267 134.341 4.867 134.341 3.555C134.341 2.21567 134.655 1.3 135.284 0.807999C135.913 0.288666 136.801 0.0289997 137.949 0.0289997C139.097 0.0289997 139.985 0.288666 140.614 0.807999C141.27 1.3 141.598 2.21567 141.598 3.555C141.598 4.867 141.27 5.78267 140.614 6.302C139.985 6.794 139.097 7.04 137.949 7.04ZM134.546 12.288C134.546 11.2767 134.806 10.5523 135.325 10.115C135.844 9.65033 136.596 9.418 137.58 9.418H138.318C139.275 9.418 140.013 9.65033 140.532 10.115C141.051 10.5523 141.311 11.2767 141.311 12.288V27.212C141.311 28.2233 141.051 28.9613 140.532 29.426C140.013 29.8633 139.275 30.082 138.318 30.082H137.539C136.582 30.082 135.844 29.8633 135.325 29.426C134.806 28.9613 134.546 28.2233 134.546 27.212V12.288ZM146.124 31.23C146.124 30.7653 146.097 30.3143 146.042 29.877C145.987 29.4123 145.96 28.9203 145.96 28.401V12.247C145.96 11.2357 146.22 10.5113 146.739 10.074C147.258 9.60933 148.01 9.377 148.994 9.377H149.732C150.689 9.377 151.427 9.60933 151.946 10.074C152.465 10.5113 152.725 11.2357 152.725 12.247V31.394C152.725 33.526 152.096 35.1387 150.839 36.232C149.609 37.3253 147.805 37.872 145.427 37.872C144.662 37.872 143.937 37.831 143.254 37.749C142.106 37.585 141.532 36.9563 141.532 35.863C141.532 35.7537 141.546 35.6033 141.573 35.412C141.573 35.2207 141.628 34.8927 141.737 34.428C141.874 33.8813 142.065 33.4713 142.311 33.198C142.557 32.9247 142.953 32.788 143.5 32.788C143.719 32.788 143.883 32.8017 143.992 32.829C144.101 32.8563 144.265 32.87 144.484 32.87C144.921 32.8427 145.304 32.706 145.632 32.46C145.96 32.2413 146.124 31.8313 146.124 31.23ZM149.363 7.04C148.215 7.04 147.327 6.794 146.698 6.302C146.069 5.78267 145.755 4.867 145.755 3.555C145.755 2.21567 146.069 1.3 146.698 0.807999C147.327 0.288666 148.215 0.0289997 149.363 0.0289997C150.511 0.0289997 151.399 0.288666 152.028 0.807999C152.684 1.3 153.012 2.21567 153.012 3.555C153.012 4.867 152.684 5.78267 152.028 6.302C151.399 6.794 150.511 7.04 149.363 7.04ZM154.993 32.46H176.067V37.011H154.993V32.46ZM178.063 12.288C178.063 11.2767 178.322 10.5523 178.842 10.115C179.361 9.65033 180.099 9.418 181.056 9.418H181.876C182.832 9.418 183.557 9.65033 184.049 10.115C184.568 10.5523 184.828 11.2767 184.828 12.288V21.759C184.828 23.071 184.978 23.9867 185.279 24.506C185.579 25.0253 186.235 25.285 187.247 25.285C187.766 25.285 188.19 25.1893 188.518 24.998C188.873 24.8067 189.187 24.547 189.461 24.219C189.652 24.0003 189.748 23.727 189.748 23.399V12.288C189.748 11.2767 190.007 10.5523 190.527 10.115C191.046 9.65033 191.784 9.418 192.741 9.418H193.561C194.517 9.418 195.242 9.65033 195.734 10.115C196.253 10.5523 196.513 11.2767 196.513 12.288V27.376C196.513 28.3873 196.239 29.1527 195.693 29.672C195.173 30.164 194.435 30.41 193.479 30.41H192.741C192.276 30.41 191.907 30.3417 191.634 30.205C191.36 30.0957 191.128 29.9453 190.937 29.754C190.773 29.5627 190.636 29.344 190.527 29.098C190.445 28.8247 190.363 28.565 190.281 28.319L190.199 28.032C190.144 27.8953 190.089 27.827 190.035 27.827C189.98 27.827 189.912 27.8817 189.83 27.991C188.572 29.6583 186.85 30.492 184.664 30.492C183.68 30.492 182.778 30.3553 181.958 30.082C181.138 29.836 180.441 29.426 179.867 28.852C179.293 28.278 178.842 27.54 178.514 26.638C178.213 25.7087 178.063 24.588 178.063 23.276V12.288ZM200.93 12.124C200.93 11.1127 201.189 10.3883 201.709 9.951C202.228 9.48633 202.98 9.254 203.964 9.254H204.579C205.481 9.254 206.082 9.44533 206.383 9.828C206.711 10.1833 206.943 10.5933 207.08 11.058L207.162 11.345C207.216 11.509 207.271 11.591 207.326 11.591C207.38 11.591 207.421 11.591 207.449 11.591C207.476 11.5637 207.531 11.4953 207.613 11.386C208.351 10.4293 209.184 9.80067 210.114 9.5C211.07 9.172 212.027 9.008 212.984 9.008C214.46 9.008 215.649 9.254 216.551 9.746C217.453 10.238 218.163 10.9487 218.683 11.878C218.819 12.0967 218.929 12.206 219.011 12.206C219.12 12.206 219.229 12.1103 219.339 11.919C220.186 10.771 221.061 10.0057 221.963 9.623C222.892 9.213 223.89 9.008 224.956 9.008C227.334 9.008 229.042 9.67767 230.081 11.017C231.119 12.329 231.639 14.215 231.639 16.675V27.212C231.639 28.2233 231.379 28.9613 230.86 29.426C230.34 29.8633 229.602 30.082 228.646 30.082H227.867C226.91 30.082 226.172 29.8633 225.653 29.426C225.133 28.9613 224.874 28.2233 224.874 27.212V18.151C224.874 16.7023 224.696 15.691 224.341 15.117C224.013 14.5157 223.247 14.215 222.045 14.215C221.662 14.215 221.279 14.3107 220.897 14.502C220.514 14.666 220.186 14.9257 219.913 15.281C219.749 15.4997 219.667 15.7593 219.667 16.06V27.212C219.667 28.2233 219.407 28.9613 218.888 29.426C218.368 29.8633 217.63 30.082 216.674 30.082H215.895C214.938 30.082 214.2 29.8633 213.681 29.426C213.161 28.9613 212.902 28.2233 212.902 27.212V18.151C212.902 16.7297 212.724 15.7183 212.369 15.117C212.041 14.5157 211.289 14.215 210.114 14.215C209.676 14.215 209.266 14.3107 208.884 14.502C208.528 14.6933 208.228 14.9393 207.982 15.24C207.79 15.4313 207.695 15.691 207.695 16.019V27.212C207.695 28.2233 207.435 28.9613 206.916 29.426C206.396 29.8633 205.658 30.082 204.702 30.082H203.923C202.966 30.082 202.228 29.8633 201.709 29.426C201.189 28.9613 200.93 28.2233 200.93 27.212V12.124ZM236.268 34.428C236.35 33.9633 236.514 33.567 236.76 33.239C237.034 32.9383 237.403 32.788 237.867 32.788C238.004 32.788 238.127 32.8017 238.236 32.829C238.373 32.8563 238.551 32.87 238.769 32.87C239.097 32.87 239.384 32.747 239.63 32.501C239.876 32.2823 240.095 31.8587 240.286 31.23L240.45 30.697C240.505 30.533 240.532 30.3827 240.532 30.246V30C240.532 29.8907 240.505 29.7677 240.45 29.631C240.423 29.467 240.382 29.3303 240.327 29.221L233.808 12.001C233.699 11.755 233.644 11.4543 233.644 11.099C233.644 10.6343 233.795 10.238 234.095 9.91C234.423 9.55467 234.929 9.377 235.612 9.377H237.826C238.619 9.377 239.207 9.582 239.589 9.992C239.972 10.402 240.286 10.9623 240.532 11.673L243.525 20.693C243.58 20.8843 243.648 20.98 243.73 20.98C243.84 20.98 243.908 20.8843 243.935 20.693L245.985 11.591C246.149 10.853 246.423 10.3063 246.805 9.951C247.188 9.56833 247.762 9.377 248.527 9.377H250.577C251.233 9.377 251.698 9.541 251.971 9.869C252.272 10.1697 252.422 10.5523 252.422 11.017C252.422 11.2903 252.381 11.5637 252.299 11.837L246.477 31.968C246.177 33.034 245.835 33.936 245.452 34.674C245.07 35.4393 244.605 36.0543 244.058 36.519C243.539 37.011 242.91 37.3527 242.172 37.544C241.462 37.7627 240.601 37.872 239.589 37.872C238.933 37.872 238.305 37.831 237.703 37.749C237.211 37.6943 236.801 37.503 236.473 37.175C236.173 36.847 236.022 36.4097 236.022 35.863C236.022 35.7537 236.022 35.6443 236.022 35.535C236.05 35.453 236.077 35.3437 236.104 35.207L236.268 34.428ZM253.872 27.786V27.499C253.872 27.3897 253.885 27.2667 253.913 27.13L254.036 26.474C254.254 25.3533 254.869 24.793 255.881 24.793C256.127 24.793 256.414 24.834 256.742 24.916C257.37 25.08 258.013 25.2167 258.669 25.326C259.325 25.408 260.049 25.449 260.842 25.449C261.552 25.449 262.044 25.3397 262.318 25.121C262.591 24.875 262.728 24.547 262.728 24.137C262.728 23.8363 262.618 23.5903 262.4 23.399C262.181 23.2077 261.798 23.0027 261.252 22.784L259.038 21.964C257.507 21.4173 256.291 20.652 255.389 19.668C254.487 18.684 254.036 17.372 254.036 15.732C254.036 14.7753 254.2 13.887 254.528 13.067C254.883 12.247 255.389 11.5363 256.045 10.935C256.701 10.3337 257.493 9.869 258.423 9.541C259.352 9.18567 260.404 9.008 261.58 9.008C262.427 9.008 263.233 9.049 263.999 9.131C264.764 9.18567 265.502 9.295 266.213 9.459C266.759 9.59567 267.197 9.84167 267.525 10.197C267.853 10.525 268.017 10.9897 268.017 11.591V11.878C268.017 11.9873 268.003 12.0967 267.976 12.206L267.853 12.903C267.634 14.051 267.046 14.625 266.09 14.625C265.789 14.625 265.502 14.584 265.229 14.502C264.737 14.3653 264.217 14.256 263.671 14.174C263.151 14.092 262.618 14.051 262.072 14.051C261.525 14.051 261.101 14.1467 260.801 14.338C260.5 14.502 260.35 14.789 260.35 15.199C260.35 15.6637 260.486 15.9917 260.76 16.183C261.033 16.3743 261.552 16.6203 262.318 16.921L264.737 17.823C266.213 18.3697 267.347 19.094 268.14 19.996C268.932 20.8707 269.329 22.1007 269.329 23.686C269.329 25.736 268.618 27.3897 267.197 28.647C265.775 29.877 263.725 30.492 261.047 30.492C260.172 30.492 259.27 30.4373 258.341 30.328C257.439 30.2187 256.578 30.0547 255.758 29.836C255.156 29.6993 254.692 29.467 254.364 29.139C254.036 28.811 253.872 28.36 253.872 27.786ZM272.52 4.006C272.52 2.99467 272.779 2.27033 273.299 1.833C273.818 1.36833 274.57 1.136 275.554 1.136H276.292C277.248 1.136 277.986 1.36833 278.506 1.833C279.025 2.27033 279.285 2.99467 279.285 4.006V27.212C279.285 28.2233 279.025 28.9613 278.506 29.426C277.986 29.8633 277.248 30.082 276.292 30.082H275.513C274.556 30.082 273.818 29.8633 273.299 29.426C272.779 28.9613 272.52 28.2233 272.52 27.212V4.006Z" fill="white" fill-opacity="0.9"/>
</svg>
