<svg width="17" height="14" viewBox="0 0 17 14" fill="none" xmlns="http://www.w3.org/2000/svg">
<path d="M9.39787 5.16145C9.13592 5.16145 8.92362 4.94915 8.92362 4.6872V0H7.26422V4.6872C7.26422 4.94915 7.05192 5.16145 6.78997 5.16145H0V6.82085H6.78997C7.05192 6.82085 7.26422 7.03315 7.26422 7.2951V11.9811H8.92362V7.2951C8.92362 7.03315 9.13592 6.82085 9.39787 6.82085H16.1878V5.16145H9.39787Z" fill="#434343"/>
<path d="M9.87207 3.54233L13.3756 0.0387801C13.2101 0.0132149 13.0406 0 12.868 0H9.87207V3.54233Z" fill="#434343"/>
<path d="M10.543 4.21294H16.1881V3.31977C16.1881 2.03632 15.4559 0.920838 14.3875 0.36853L10.543 4.21294Z" fill="#434343"/>
<path d="M10.541 7.76941L14.3768 11.6181C15.451 11.0678 16.188 9.949 16.188 8.66135V7.76941H10.541Z" fill="#434343"/>
<path d="M6.31604 3.54233V0H3.3201C3.14756 0 2.97799 0.0132149 2.8125 0.0387801L6.31604 3.54233Z" fill="#434343"/>
<path d="M9.87207 8.44189V11.981H12.868C13.0361 11.981 13.2012 11.9684 13.3625 11.9442L9.87207 8.44189Z" fill="#434343"/>
<path d="M5.64509 4.21294L1.80056 0.36853C0.732128 0.920714 0 2.03632 0 3.31977V4.21294H5.64509Z" fill="#434343"/>
<path d="M5.64509 7.76941H0V8.66135C0 9.94517 0.732499 11.0609 1.80142 11.6131L5.64509 7.76941Z" fill="#434343"/>
<path d="M6.31591 8.44006L2.81348 11.9425C2.9786 11.9678 3.1478 11.981 3.31996 11.981H3.81262L4.96725 13.4459C5.05729 13.56 5.1945 13.6266 5.33974 13.6266C5.48498 13.6266 5.62231 13.56 5.71223 13.4459L6.31591 12.6801V8.44006Z" fill="#434343"/>
</svg>
