<?xml version="1.0" encoding="utf-8"?>
<!-- Generator: Adobe Illustrator 19.0.0, SVG Export Plug-In . SVG Version: 6.00 Build 0)  -->
<svg version="1.1" id="a5c16198-98a1-478b-8909-43624583dcf2"
	 xmlns="http://www.w3.org/2000/svg" xmlns:xlink="http://www.w3.org/1999/xlink" x="0px" y="0px" viewBox="99 145.2 793 551.7"
	 style="enable-background:new 99 145.2 793 551.7;" xml:space="preserve">
<style type="text/css">
	.st0{fill:#E6E6E6;}
	.st1{fill:#2F2E41;}
	.st2{fill:#3F3D56;}
	.st3{fill:#FFFFFF;}
	.st4{fill:#EE322C;}
	.st5{fill:#FFB8B8;}
	.st6{fill:#EE302B;}
	.st7{fill:#EE2E2A;}
</style>
<ellipse class="st0" cx="257" cy="684.9" rx="158" ry="12"/>
<path class="st1" d="M219.8,267.6c27.5-11.7,61.7-4.3,95.2,0.9c0.3-6.2,4.1-13.8,0.1-18.2c-4.8-5.3-4.4-10.8-1.5-16.4
	c7.4-14.3-3.2-29.4-13.9-42.1c-4.9-5.8-12.2-8.8-19.8-8.3l-19.8,1.4c-9.9,0.7-18.3,7.5-21.1,16.9l0,0c-4.7,6.4-7.3,12.8-5.7,19.2
	c-7.1,4.8-8.3,10.7-5.1,17.3c2.7,4.1,2.7,8.2-0.1,12.1c-3.7,5-6.5,10.6-8.3,16.5L219.8,267.6z"/>
<path class="st1" d="M873.2,622.1H312.8c-10.4,0-18.8-8.4-18.8-18.8l0,0l0,0c203.2-23.6,402.5-23.6,598,0l0,0
	C892,613.7,883.6,622.1,873.2,622.1L873.2,622.1z"/>
<path class="st2" d="M892,604.4l-598-1.1l69.3-116.6l0.3-0.6v-257c0-13.1,10.6-23.8,23.8-23.8c0,0,0,0,0,0h407.9
	c13.1,0,23.8,10.6,23.8,23.8c0,0,0,0,0,0v258.8L892,604.4z"/>
<path class="st3" d="M386.9,222c-4.3,0-7.7,3.5-7.7,7.7v234.3c0,4.3,3.5,7.7,7.7,7.7h412.3c4.3,0,7.7-3.5,7.7-7.7V229.7
	c0-4.3-3.5-7.7-7.7-7.7L386.9,222z"/>
<path class="st1" d="M388.6,502.7c-1.3,0-2.5,0.8-3,1.9l-21.4,46.4c-0.8,1.7,0,3.6,1.6,4.4c0.4,0.2,0.9,0.3,1.4,0.3h449.1
	c1.8,0,3.3-1.5,3.3-3.3c0-0.5-0.1-1-0.4-1.5l-23.2-46.4c-0.6-1.1-1.7-1.8-3-1.8L388.6,502.7z"/>
<circle class="st3" cx="591.3" cy="213.1" r="5"/>
<path class="st1" d="M547.2,564.6c-1.5,0-2.8,1-3.2,2.5l-5.4,19.9c-0.5,1.8,0.6,3.6,2.3,4.1c0.3,0.1,0.6,0.1,0.9,0.1h101.9
	c1.8,0,3.3-1.5,3.3-3.3c0-0.4-0.1-0.7-0.2-1.1l-6.9-19.9c-0.5-1.3-1.7-2.2-3.1-2.2L547.2,564.6z"/>
<polygon class="st1" points="819,482.3 819,486.7 363.3,486.7 363.6,486.2 363.6,482.3 "/>
<circle class="st4" cx="806.3" cy="222.5" r="77.4"/>
<path class="st3" d="M838.4,256.2h-64.1c-2.4,0-4.4-2-4.4-4.4v-38.7c0-2.4,2-4.4,4.4-4.4h64.1c2.4,0,4.4,2,4.4,4.4v38.7
	C842.8,254.3,840.8,256.2,838.4,256.2z M774.3,213.1v38.7h64.1l0-38.7L774.3,213.1z"/>
<path class="st3" d="M826.2,213.1h-39.8v-17.7c0-12.8,8.4-22.1,19.9-22.1s19.9,9.3,19.9,22.1V213.1z M790.9,208.7h31v-13.3
	c0-10.4-6.4-17.7-15.5-17.7s-15.5,7.3-15.5,17.7L790.9,208.7z"/>
<circle class="st3" cx="806.3" cy="231.4" r="4.4"/>
<path class="st0" d="M752.3,392.3H433.7c-3.3,0-5.9-2.6-5.9-5.9v-79c0-3.3,2.6-5.9,5.9-5.9h318.6c3.3,0,5.9,2.6,5.9,5.9v79
	C758.2,389.7,755.6,392.3,752.3,392.3z M433.7,303.8c-2,0-3.5,1.6-3.5,3.5v79c0,2,1.6,3.5,3.5,3.5h318.6c2,0,3.5-1.6,3.5-3.5v-79
	c0-2-1.6-3.5-3.5-3.5L433.7,303.8z"/>
<circle class="st0" cx="483.2" cy="343.9" r="24"/>
<path class="st0" d="M538.7,327.8c-2.2,0-4,1.8-4,4c0,2.2,1.8,4,4,4c0,0,0,0,0,0h188.9c2.2,0,4-1.8,4-4s-1.8-4-4-4H538.7z"/>
<path class="st0" d="M538.7,351.9c-2.2,0-4,1.8-4,4s1.8,4,4,4H620c2.2,0,4-1.8,4-4s-1.8-4-4-4H538.7z"/>
<path class="st5" d="M362.5,353.5l-58.9,31.3l-0.7-26.1c19.2-3.2,37.5-8.8,54.4-17.9l6.2-15.2c2.1-5.3,8.2-7.8,13.4-5.7
	c1.6,0.6,3,1.7,4.1,3l0,0c3.4,4.2,3.1,10.3-0.9,14.1L362.5,353.5z"/>
<path class="st1" d="M218.6,534.3L218.6,534.3c-0.9-3.2-0.3-6.6,1.5-9.4l12.9-19.9c6.3-9.7,19-13.1,29.3-7.7l0,0
	c-5.4,9.3-4.7,17.4,1.9,24.4c-10.2,5-19.6,11.4-27.9,19c-5.3,3.6-12.5,2.2-16.1-3C219.5,536.7,218.9,535.5,218.6,534.3z"/>
<path class="st1" d="M365.2,508.3L365.2,508.3c-4,6.6-11.1,10.7-18.9,10.8l-86,0.7l-3.7-21.6l38-11.2l-32.1-24.6l35-41l63.6,59.3
	C369,487.8,370.6,499.3,365.2,508.3z"/>
<path class="st1" d="M247,656.2h-20.1c-18.1-123.9-36.5-248.1,17.9-294.5l64.1,10.4l-8.2,54.4l-35.8,41L247,656.2z"/>
<path class="st1" d="M264.6,684.3L264.6,684.3c-3.2,0.9-6.6,0.3-9.4-1.5l-21.9-2.9c-9.7-6.3-13.1-19-7.7-29.3l0,0
	c9.3,5.4,17.4,4.7,24.4-1.9c5,10.1,13.2,9.5,21,17.9c3.6,5.3,2.2,12.5-3,16.1C267.1,683.4,265.9,683.9,264.6,684.3z"/>
<path class="st5" d="M294.7,278.9l-37.3-8.9c6.2-12.7,6.7-26.8,3.7-41.8l25.4-0.7C287.3,246.1,289.7,263.5,294.7,278.9z"/>
<path class="st6" d="M304.9,394.6c-27.1,18.5-46.3,0.6-60.9-26.9c2-16.9-1.3-37-7.4-59c-5.6-20,5-41.1,24.5-48.4l0,0l32.1,13.4
	c27.2,22.2,32.6,46.2,22.4,71.6L304.9,394.6z"/>
<path class="st5" d="M226.8,297.6L197,313.2l52.9,31.3l7.4,18.2c2,4.9-0.4,10.6-5.3,12.6c-0.2,0.1-0.3,0.1-0.5,0.2l0,0
	c-5,1.7-10.5-0.9-12.3-6c-0.3-0.8-0.5-1.7-0.5-2.6l-0.7-12.7L170.7,332c-4.6-1.5-8.2-5.1-9.9-9.6l0,0c-2.4-6.7,0-14.3,5.9-18.3
	l54.1-37.1L226.8,297.6z"/>
<path class="st7" d="M256.6,300.5c-12.4-5.5-23.7,0.5-38,5.2l-2.2-39.5c14.2-7.6,27.7-9.6,40.3-3.7L256.6,300.5z"/>
<circle class="st5" cx="271.5" cy="223.3" r="23.8"/>
<path class="st1" d="M300,220.2c-23.6,2.3-41.5-1.5-53-12.5v-8.8h51L300,220.2z"/>
</svg>
