<svg id="Layer_1" data-name="Layer 1" xmlns="http://www.w3.org/2000/svg" viewBox="0 0 299.85 95"><defs><style>.cls-1{fill:#fff;}</style></defs><title>logo_white</title><path class="cls-1" d="M348.41,71.7h-11a1.31,1.31,0,0,0-1.45,1.5v.4c0,1.08.49,1.62,1.45,1.62h3.05a.28.28,0,0,1,.32.31V88.59a1.54,1.54,0,0,0,1.41,1.76l.43,0h.49c1.25,0,1.87-.59,1.87-1.78V75.53a.28.28,0,0,1,.32-.31h3.14q1.44,0,1.44-1.5v-.4Q349.85,71.7,348.41,71.7Zm-33.24,0h-11q-1.44,0-1.44,1.5v.4q0,1.62,1.44,1.62h3.06a.27.27,0,0,1,.31.31V88.59a1.54,1.54,0,0,0,1.41,1.76l.44,0h.49c1.25,0,1.87-.59,1.87-1.78V75.53a.28.28,0,0,1,.32-.31h3.14q1.44,0,1.44-1.5v-.4Q316.61,71.7,315.17,71.7ZM189.9,73.29a1.62,1.62,0,0,0-.44-1.26,1.91,1.91,0,0,0-1.29-.38h-.43a1.9,1.9,0,0,0-1.28.38,1.59,1.59,0,0,0-.45,1.26v9.13c0,.15,0,.23-.08.23a.18.18,0,0,1-.15-.07,2.22,2.22,0,0,1-.14-.22l-6-9.3a2.82,2.82,0,0,0-2.5-1.36h-.46a1.67,1.67,0,0,0-1.21.43,1.65,1.65,0,0,0-.44,1.21V88.73a1.55,1.55,0,0,0,.45,1.25h0a2,2,0,0,0,.25.14,1.53,1.53,0,0,0,.39.17,2.55,2.55,0,0,0,.64.08h.44a1.9,1.9,0,0,0,1.28-.39,1.55,1.55,0,0,0,.44-1.25V79.42c0-.17,0-.26.06-.26s0,0,.05,0a.58.58,0,0,1,.24.28L185.41,89a3.11,3.11,0,0,0,.44.56,2.84,2.84,0,0,0,.51.42,2.33,2.33,0,0,0,.28.11,3,3,0,0,0,1.22.24h.43a1.42,1.42,0,0,0,1.61-1.62Zm39.81.23a3.57,3.57,0,0,0,.08-.69,1.37,1.37,0,0,0-.27-.87,1.09,1.09,0,0,0-.91-.34h-1.32a1.54,1.54,0,0,0-1.14.39,2.16,2.16,0,0,0-.56,1.1l-2.68,10.75c0,.19-.09.29-.15.29s-.14-.1-.2-.29l-3.08-11a1.68,1.68,0,0,0-.58-.89,1.57,1.57,0,0,0-1-.35h-1.38a1.47,1.47,0,0,0-1,.35,1.75,1.75,0,0,0-.55.89l-3,11c-.06.19-.11.29-.15.29s-.13-.1-.17-.29l-2.68-10.72a2.32,2.32,0,0,0-.56-1.12,1.51,1.51,0,0,0-1.14-.4h-1.44a1.15,1.15,0,0,0-.95.36,1.36,1.36,0,0,0-.29.87,2.1,2.1,0,0,0,.12.7l4.26,15.56a1.79,1.79,0,0,0,.62,1,1.57,1.57,0,0,0,.54.29,2.17,2.17,0,0,0,.69.1h1.52a1.8,1.8,0,0,0,1.21-.39,1.83,1.83,0,0,0,.61-1l2.79-10.2c.06-.23.12-.35.18-.35s.11.12.17.35l2.88,10.14a2,2,0,0,0,.65,1,1.57,1.57,0,0,0,.54.29,2.11,2.11,0,0,0,.68.1h1.65a1.81,1.81,0,0,0,1.22-.39,2,2,0,0,0,.62-1Zm68.68-1.9H297a1.35,1.35,0,0,0-1.11.4,5.89,5.89,0,0,0-.65,1l-2.79,5.56c-.12.21-.19.31-.23.31s-.14-.1-.23-.31l-2.82-5.48a6.52,6.52,0,0,0-.7-1.11,1.43,1.43,0,0,0-1.15-.41h-1.41a1.26,1.26,0,0,0-1,.36,1.19,1.19,0,0,0-.35.85,1.71,1.71,0,0,0,.2.72l5,9.3a1.14,1.14,0,0,1,.17.61v5.13a1.55,1.55,0,0,0,1.43,1.76l.44,0h.49c1.23,0,1.85-.59,1.85-1.78v-5.1a1.28,1.28,0,0,1,.17-.64l5-9.39a1.53,1.53,0,0,0,.2-.69,1.11,1.11,0,0,0-.33-.82A1.22,1.22,0,0,0,298.39,71.62Zm-20.23,8.09-2.45-1a4.86,4.86,0,0,1-1.45-.83,1.66,1.66,0,0,1-.48-1.3,1.55,1.55,0,0,1,.55-1.32,2.61,2.61,0,0,1,1.56-.41,5,5,0,0,1,.56.06,3.9,3.9,0,0,1,.5,0c.33.07.63.15.91.23s.54.17.79.23a2.68,2.68,0,0,0,.72.11h0a1.13,1.13,0,0,0,.78-.26,2.25,2.25,0,0,0,.52-.84,2.91,2.91,0,0,0,.17-.66,3.88,3.88,0,0,0,0-.43A1.35,1.35,0,0,0,279.81,72a7.92,7.92,0,0,0-2-.47,17.41,17.41,0,0,0-2.19-.13h0a7.58,7.58,0,0,0-2.42.37,5.82,5.82,0,0,0-2,1.08A4.81,4.81,0,0,0,270,74.6a5.79,5.79,0,0,0-.48,2.43,5.2,5.2,0,0,0,1.12,3.49,7.63,7.63,0,0,0,3.06,2l2,.77a3.89,3.89,0,0,1,1.34.8,1.74,1.74,0,0,1,.44,1.28,1.43,1.43,0,0,1-.7,1.35,3.58,3.58,0,0,1-1.8.41,7.31,7.31,0,0,1-1.79-.22c-.56-.15-1.07-.3-1.56-.48l-.36-.1h0a1.35,1.35,0,0,0-.33,0,1.29,1.29,0,0,0-1.24,1q-.14.45-.18.69a2.17,2.17,0,0,0-.05.4,1.1,1.1,0,0,0,.29.79,2.39,2.39,0,0,0,.84.54,9.77,9.77,0,0,0,2.06.62h0a12.5,12.5,0,0,0,2.17.2h.26a10,10,0,0,0,2.83-.37,6.06,6.06,0,0,0,2.17-1.13,4.91,4.91,0,0,0,1.4-1.84,6.16,6.16,0,0,0,.49-2.56,4.59,4.59,0,0,0-1-3.14A7.17,7.17,0,0,0,278.16,79.71ZM261.9,83.26a.8.8,0,0,1-.09-.23.12.12,0,0,1,.06-.12.31.31,0,0,0,.11-.09q2.63-1.44,2.63-5.1A6,6,0,0,0,263,73.23a6.66,6.66,0,0,0-4.82-1.53h-5.07a1.5,1.5,0,0,0-1.59,1.59v15.3a1.54,1.54,0,0,0,1.06,1.67,2.5,2.5,0,0,0,.82.11h.43c1.25,0,1.87-.59,1.87-1.78V84.06a.28.28,0,0,1,.32-.31h.83l.29,0h.29a.45.45,0,0,1,.43.26l2.8,5a3.78,3.78,0,0,0,.77,1,1.53,1.53,0,0,0,.52.28,2.26,2.26,0,0,0,.67.09h1.52a1.23,1.23,0,0,0,.91-.3,1,1,0,0,0,.3-.73,1.32,1.32,0,0,0-.23-.72ZM260.08,79a1.65,1.65,0,0,1-.59.77,2.27,2.27,0,0,1-.94.38,6.7,6.7,0,0,1-1.26.1h-1.24a.29.29,0,0,1-.32-.32V75.48a.29.29,0,0,1,.32-.32h1.24a6.7,6.7,0,0,1,1.26.1,2.28,2.28,0,0,1,.94.39,1.76,1.76,0,0,1,.59.79,3.41,3.41,0,0,1,.2,1.28A3.53,3.53,0,0,1,260.08,79Zm71.5,7.79h-6.71c-.21,0-.32-.1-.32-.29V82.91a.29.29,0,0,1,.32-.32h3.69A1.3,1.3,0,0,0,330,81.1v-.41q0-1.53-1.44-1.53h-3.69a.28.28,0,0,1-.32-.31V75.51a.28.28,0,0,1,.32-.32h6.31q1.44,0,1.44-1.5v-.43q0-1.56-1.44-1.56h-9.25a1.59,1.59,0,0,0-1.15.43,1.57,1.57,0,0,0-.43,1.16V88.73a1.53,1.53,0,0,0,.43,1.15,1.55,1.55,0,0,0,1.15.44h9.65q1.44,0,1.44-1.5v-.41C333,87.36,332.54,86.83,331.58,86.83ZM196.25,90.12a2.24,2.24,0,0,0,1.14.25h.46c1.25,0,1.87-.59,1.87-1.78V73.43c0-1.19-.62-1.78-1.87-1.78h-.46c-1.25,0-1.87.59-1.87,1.78V88.59A1.61,1.61,0,0,0,196.25,90.12Zm39.13.09a3.26,3.26,0,0,0,.33.05,1.65,1.65,0,0,0,.32.06h9.65c1,0,1.45-.5,1.45-1.5v-.41c0-.79-.27-1.28-.81-1.48a1.79,1.79,0,0,0-.64-.1H239a0,0,0,0,1,0,0c-.2,0-.31-.09-.31-.28V82.91a.29.29,0,0,1,.32-.32h3.69a1.3,1.3,0,0,0,1.44-1.49v-.41a1.33,1.33,0,0,0-.81-1.43,2,2,0,0,0-.63-.1H239a.28.28,0,0,1-.32-.31V75.51a.28.28,0,0,1,.32-.32h6.31q1.44,0,1.44-1.5v-.43q0-1.56-1.44-1.56H236a1.59,1.59,0,0,0-1.15.43,1.57,1.57,0,0,0-.43,1.16V88.73a1.53,1.53,0,0,0,.43,1.15A1.29,1.29,0,0,0,235.38,90.21ZM168.09,71.67a3.17,3.17,0,0,0-.44,0h-.49c-1.25,0-1.87.59-1.87,1.78V83a13.32,13.32,0,0,1-.09,1.67c0,.15,0,.3-.07.43a3,3,0,0,1-.52,1.27,1.74,1.74,0,0,1-.94.62,5.45,5.45,0,0,1-1.38.16,5.59,5.59,0,0,1-1.41-.16,1.94,1.94,0,0,1-.53-.23,1.84,1.84,0,0,1-.41-.38,2.84,2.84,0,0,1-.53-1.25c0-.13-.06-.28-.08-.43s0-.32-.05-.5c0-.35-.05-.74-.05-1.17V73.43c0-1.19-.62-1.78-1.87-1.78h-.49c-1.09,0-1.7.45-1.84,1.36a2.77,2.77,0,0,0,0,.42v10a11.71,11.71,0,0,0,.31,2.9,7.54,7.54,0,0,0,.24.76,5,5,0,0,0,1.52,2.19,5.42,5.42,0,0,0,2.32,1,14.73,14.73,0,0,0,2.9.27,11.84,11.84,0,0,0,2.78-.31,5.72,5.72,0,0,0,2.3-1.14A5.48,5.48,0,0,0,168.94,87a9.3,9.3,0,0,0,.58-3.56v-10A1.55,1.55,0,0,0,168.09,71.67Zm-2.84,47.77h-5.61c-.21,0-.32-.11-.32-.35v-5.52a.45.45,0,0,1,.17-.38l2.66-1.69a1.45,1.45,0,0,0,.47-.37.78.78,0,0,0,.15-.51,1.63,1.63,0,0,0-.11-.55,2.41,2.41,0,0,0-.27-.56,1.8,1.8,0,0,0-.43-.44.94.94,0,0,0-.54-.17,1,1,0,0,0-.3,0,2,2,0,0,0-.4.19l-1,.67a.54.54,0,0,1-.26.09c-.1,0-.15-.07-.15-.2V106c0-1.21-.63-1.81-1.9-1.81H157c-1.26,0-1.9.6-1.9,1.81v6.51a.48.48,0,0,1-.17.44l-2.13,1.37a1.87,1.87,0,0,0-.48.4.73.73,0,0,0-.17.51,1.38,1.38,0,0,0,.12.52,3.71,3.71,0,0,0,.29.56,2.22,2.22,0,0,0,.41.45.73.73,0,0,0,.47.19.88.88,0,0,0,.39-.07,2.22,2.22,0,0,0,.37-.22l.44-.29a.82.82,0,0,1,.32-.09c.1,0,.14.08.14.23v5a1.65,1.65,0,0,0,.43,1.17,1.56,1.56,0,0,0,1.18.43h8.59a1.37,1.37,0,0,0,1.52-1.57v-.44C166.77,120,166.26,119.44,165.25,119.44Zm68.94-6.6a.37.37,0,0,1-.09-.23.33.33,0,0,1,.12-.21l5.6-6.25a1.43,1.43,0,0,0,.47-1,.93.93,0,0,0-.33-.73,1.41,1.41,0,0,0-.92-.29h-1.67a2,2,0,0,0-1.24.36,6.63,6.63,0,0,0-1,1l-5.23,6c-.11.14-.2.2-.26.2s-.12-.07-.12-.23V106c0-1.21-.63-1.81-1.9-1.81h-.46c-1.27,0-1.9.6-1.9,1.81v15.36c0,1.21.63,1.81,1.9,1.81h.46c1.27,0,1.9-.6,1.9-1.81v-3.56a.86.86,0,0,1,.24-.59l1-1c.12-.13.2-.2.26-.2s.14.08.24.23l3.82,5.7a3.67,3.67,0,0,0,.91.93,2.07,2.07,0,0,0,1.25.35H239a1.44,1.44,0,0,0,1.05-.32,1,1,0,0,0,.32-.73,1.47,1.47,0,0,0-.26-.76Zm13-8.7h-.47c-1.27,0-1.9.6-1.9,1.81v15.36c0,1.21.63,1.81,1.9,1.81h.47c1.26,0,1.9-.6,1.9-1.81V106C249.07,104.74,248.43,104.14,247.17,104.14Zm-64.11,1.78a5.94,5.94,0,0,0-2.53-1.58,10.3,10.3,0,0,0-3.15-.46,9.18,9.18,0,0,0-3,.49,6.36,6.36,0,0,0-2.52,1.64,7.92,7.92,0,0,0-1.74,3,14.21,14.21,0,0,0-.65,4.61,15.81,15.81,0,0,0,.6,4.72,7.6,7.6,0,0,0,1.67,3,6,6,0,0,0,2.51,1.58,10.18,10.18,0,0,0,3.14.47,9.18,9.18,0,0,0,3-.5,6.36,6.36,0,0,0,2.52-1.64,8.11,8.11,0,0,0,1.76-3,14,14,0,0,0,.65-4.62,16.17,16.17,0,0,0-.59-4.72A7.6,7.6,0,0,0,183.06,105.92Zm-2.35,10.89a5.13,5.13,0,0,1-.64,1.9,2.19,2.19,0,0,1-1.11.92,4.48,4.48,0,0,1-1.58.25,4.2,4.2,0,0,1-1.53-.25,2.21,2.21,0,0,1-1.1-.92,5.3,5.3,0,0,1-.66-1.9,19.38,19.38,0,0,1-.21-3.18,19.63,19.63,0,0,1,.2-3.18,5.33,5.33,0,0,1,.63-1.9,2.13,2.13,0,0,1,1.08-.92,5.05,5.05,0,0,1,3.14,0,2.19,2.19,0,0,1,1.11.92,5.3,5.3,0,0,1,.66,1.9,24.77,24.77,0,0,1,0,6.36Zm-5.33-14.69a1.11,1.11,0,0,0,.49.42,1.4,1.4,0,0,0,1.18-.32c2.34-1.47,2.34-1.47,4-2.53a1,1,0,0,0,.51-1.35,2.84,2.84,0,0,0-.61-1,1.09,1.09,0,0,0-.5-.3.81.81,0,0,0-.64.09c-.77.49-4.08,2.86-4.38,3.1a1.15,1.15,0,0,0-.53.7,1.07,1.07,0,0,0,.09.49,3.09,3.09,0,0,0,.34.65Zm26.48,4a6.56,6.56,0,0,0-2.69-1.49,11.74,11.74,0,0,0-3.15-.42h-4.68a1.48,1.48,0,0,0-1.6,1.6v15.66a1.48,1.48,0,0,0,1.6,1.6H196a11.74,11.74,0,0,0,3.15-.42,6.56,6.56,0,0,0,2.69-1.49,7.43,7.43,0,0,0,1.87-2.89,15.66,15.66,0,0,0,0-9.26A7.43,7.43,0,0,0,201.86,106.11Zm-2.18,10.65a4,4,0,0,1-1,1.78,3,3,0,0,1-1.51.8,9,9,0,0,1-2,.19h-.91c-.23,0-.35-.11-.35-.32V108c0-.19.12-.29.35-.29h.91a9,9,0,0,1,2,.19,3,3,0,0,1,1.51.8,4,4,0,0,1,1,1.79,14.53,14.53,0,0,1,0,6.25Zm19.84,2.77h-6.36q-.21,0-.21-.12a.3.3,0,0,1,0-.1,1.21,1.21,0,0,1,.1-.19l6.77-10.75a5.58,5.58,0,0,0,.56-1.12,3.49,3.49,0,0,0,.2-1.21v-.41a1.32,1.32,0,0,0-1.43-1.43H209a1.3,1.3,0,0,0-1.46,1.49v.46c0,1,.48,1.58,1.46,1.58h5.81c.14,0,.2,0,.2.12a.31.31,0,0,1,0,.1,1.21,1.21,0,0,1-.1.19l-6.75,11a6.64,6.64,0,0,0-.51,1,2.84,2.84,0,0,0-.19,1v.41a1.41,1.41,0,0,0,.36,1,1.28,1.28,0,0,0,1,.38h10.69a1.3,1.3,0,0,0,1.46-1.48v-.47C221,120.06,220.5,119.53,219.52,119.53Z" transform="translate(-50 -49.89)"/><path class="cls-1" d="M121.72,114a8,8,0,0,0-10.93,2.92,23.76,23.76,0,0,1-2.77,3.86h0q-.51.57-1,1.11l-.09.08c-.35.35-.7.68-1.07,1l0,0a24.14,24.14,0,0,1-11,5.43l-.23.05c-.4.08-.8.14-1.2.2l-.39.05c-.36.05-.73.08-1.1.11l-.4,0c-.49,0-1,0-1.48,0a24,24,0,0,1-24-24v-45a8,8,0,0,0-16,0v45a40,40,0,0,0,40,40c.82,0,1.64,0,2.46-.09l.68-.05c.61-.05,1.22-.11,1.82-.19l.66-.08c.67-.1,1.33-.21,2-.34l.39-.07a39.92,39.92,0,0,0,18.28-9l.07-.06c.6-.53,1.19-1.07,1.76-1.63l.18-.18c.57-.58,1.14-1.17,1.68-1.79l.06-.06.15-.16a3.47,3.47,0,0,0,.29-.38,38.91,38.91,0,0,0,4.17-5.87A8,8,0,0,0,121.72,114ZM122,49.89H90.27A8.17,8.17,0,0,0,82,57.35a8,8,0,0,0,8,8.54h7.7a2.06,2.06,0,0,1,1.46,3.52L92.55,76a8.2,8.2,0,0,0-.6,11.1,8,8,0,0,0,11.71.42l6.81-6.81A2.07,2.07,0,0,1,114,82.19v9.42a8.19,8.19,0,0,0,7.47,8.26,8,8,0,0,0,8.53-8v-34A8,8,0,0,0,122,49.89Z" transform="translate(-50 -49.89)"/></svg>