<?xml version="1.0" encoding="utf-8"?>
<!-- Generator: Adobe Illustrator 23.0.2, SVG Export Plug-In . SVG Version: 6.00 Build 0)  -->
<svg version="1.1" id="Warstwa_1" xmlns="http://www.w3.org/2000/svg" xmlns:xlink="http://www.w3.org/1999/xlink" x="0px" y="0px"
	 viewBox="0 0 80 95" style="enable-background:new 0 0 80 95;" xml:space="preserve">
<style type="text/css">
	.st0{fill:#EE2E2A;}
</style>
<path class="st0" d="M71.4,64c-3.8-2.2-8.6-0.9-10.8,2.9c-0.8,1.4-1.7,2.6-2.7,3.8l0,0c-0.3,0.4-0.7,0.7-1,1.1l-0.1,0.1
	c-0.3,0.3-0.7,0.7-1.1,1l0,0c-3.1,2.7-6.9,4.6-10.9,5.4l-0.2,0c-0.4,0.1-0.8,0.1-1.2,0.2l-0.4,0c-0.4,0-0.7,0.1-1.1,0.1h-0.4
	c-0.5,0-1,0-1.5,0c-13.2,0-23.8-10.7-23.8-23.8V10.3c0-4.4-3.6-7.9-7.9-7.9s-7.9,3.6-7.9,7.9v44.6c0,21.9,17.8,39.7,39.7,39.7
	c0.8,0,1.6,0,2.4-0.1l0.7,0c0.6,0,1.2-0.1,1.8-0.2l0.7-0.1c0.7-0.1,1.3-0.2,2-0.3l0.4-0.1c6.7-1.4,13-4.4,18.1-8.9l0.1-0.1
	c0.6-0.5,1.2-1.1,1.7-1.6l0.2-0.2c0.6-0.6,1.1-1.2,1.7-1.8l0.1-0.1L70,81c0.1-0.1,0.2-0.2,0.3-0.4c1.6-1.8,2.9-3.8,4.1-5.8
	C76.5,71,75.2,66.2,71.4,64z M71.7,0.4H40.2C36,0.3,32.4,3.6,32,7.8c-0.3,4.4,3,8.2,7.4,8.5c0.2,0,0.4,0,0.6,0h7.6
	c1.1,0,2,0.9,2.1,2c0,0.5-0.2,1.1-0.6,1.5l-6.6,6.5c-3,3-3.3,7.7-0.6,11c2.9,3.3,7.9,3.7,11.2,0.8c0.1-0.1,0.3-0.3,0.4-0.4l6.8-6.8
	c0.8-0.8,2.1-0.8,2.9,0c0.4,0.4,0.6,0.9,0.6,1.5v9.3c-0.1,4.2,3.2,7.8,7.4,8.2c4.4,0.3,8.2-3,8.4-7.4c0-0.2,0-0.4,0-0.5V8.3
	C79.6,4,76.1,0.4,71.7,0.4z"/>
</svg>
