<svg width="32" height="32" viewBox="0 0 32 32" fill="none" xmlns="http://www.w3.org/2000/svg">
<path d="M28.9029 0H3.09674C1.39353 0 0 1.01253 0 2.25006C0 3.4876 1.39353 4.50013 3.09674 4.50013H28.9029C30.6061 4.50013 31.9996 3.4876 31.9996 2.25006C31.9996 1.01253 30.6061 0 28.9029 0Z" fill="white"/>
<path d="M28.9029 13.75H3.09674C1.39353 13.75 0 14.7625 0 16.0001C0 17.2376 1.39353 18.2501 3.09674 18.2501H28.9029C30.6061 18.2501 31.9996 17.2376 31.9996 16.0001C31.9996 14.7625 30.6061 13.75 28.9029 13.75Z" fill="white"/>
<path d="M28.9029 27.4998H3.09674C1.39353 27.4998 0 28.5123 0 29.7498C0 30.9874 1.39353 31.9999 3.09674 31.9999H28.9029C30.6061 31.9999 31.9996 30.9874 31.9996 29.7498C31.9996 28.5123 30.6061 27.4998 28.9029 27.4998Z" fill="white"/>
</svg>
