<?xml version="1.0" encoding="utf-8"?>
<!-- Generator: Adobe Illustrator 23.0.2, SVG Export Plug-In . SVG Version: 6.00 Build 0)  -->
<svg version="1.1" id="Warstwa_1" xmlns="http://www.w3.org/2000/svg" xmlns:xlink="http://www.w3.org/1999/xlink" x="0px" y="0px"
	 viewBox="0 0 48 49.9" style="enable-background:new 0 0 48 49.9;" xml:space="preserve">
<style type="text/css">
	.st0{fill:#EE2E2A;}
</style>
<path class="st0" d="M39.7,0.4H8.2C4,0.3,0.4,3.6,0,7.8c-0.3,4.4,3,8.2,7.4,8.5c0.2,0,0.4,0,0.6,0h7.6c1.1,0,2,0.9,2.1,2
	c0,0.5-0.2,1.1-0.6,1.5l-6.6,6.5c-3,3-3.3,7.7-0.6,11c2.9,3.3,7.9,3.7,11.2,0.8c0.1-0.1,0.3-0.3,0.4-0.4l6.8-6.8
	c0.8-0.8,2.1-0.8,2.9,0c0.4,0.4,0.6,0.9,0.6,1.5v9.3c-0.1,4.2,3.2,7.8,7.4,8.2c4.4,0.3,8.2-3,8.4-7.4c0-0.2,0-0.4,0-0.5V8.3
	C47.6,4,44.1,0.4,39.7,0.4z"/>
</svg>
