<svg width="217" height="41" viewBox="0 0 217 41" fill="none" xmlns="http://www.w3.org/2000/svg">
<path d="M4.668 32.278C4.668 32.098 4.596 31.954 4.452 31.846C4.344 31.702 4.2 31.63 4.02 31.63H3.318C1.662 31.63 0.834 30.766 0.834 29.038V28.12C0.834 26.428 1.662 25.582 3.318 25.582H4.02C4.2 25.582 4.344 25.528 4.452 25.42C4.596 25.276 4.668 25.114 4.668 24.934V19.534C4.668 19.354 4.596 19.21 4.452 19.102C4.344 18.958 4.2 18.886 4.02 18.886H3.318C1.662 18.886 0.834 18.022 0.834 16.294V15.538C0.834 13.846 1.662 13 3.318 13H4.02C4.2 13 4.344 12.946 4.452 12.838C4.596 12.694 4.668 12.532 4.668 12.352V7.87C4.668 6.034 5.658 5.116 7.638 5.116H8.448C10.356 5.116 11.31 6.034 11.31 7.87V12.352C11.31 12.784 11.526 13 11.958 13H14.982C15.414 13 15.63 12.784 15.63 12.352V7.87C15.63 6.034 16.62 5.116 18.6 5.116H19.41C21.318 5.116 22.272 6.034 22.272 7.87V12.352C22.272 12.532 22.326 12.694 22.434 12.838C22.578 12.946 22.74 13 22.92 13H23.622C25.278 13 26.106 13.864 26.106 15.592V16.348C26.106 18.04 25.278 18.886 23.622 18.886H22.92C22.74 18.886 22.578 18.958 22.434 19.102C22.326 19.21 22.272 19.354 22.272 19.534V24.934C22.272 25.114 22.326 25.276 22.434 25.42C22.578 25.528 22.74 25.582 22.92 25.582H23.622C25.278 25.582 26.106 26.428 26.106 28.12V29.038C26.106 30.766 25.278 31.63 23.622 31.63H22.92C22.74 31.63 22.578 31.702 22.434 31.846C22.326 31.954 22.272 32.098 22.272 32.278V37.354C22.272 39.19 21.282 40.108 19.302 40.108H18.492C16.584 40.108 15.63 39.19 15.63 37.354V32.278C15.63 31.846 15.414 31.63 14.982 31.63H11.958C11.526 31.63 11.31 31.846 11.31 32.278V37.354C11.31 39.19 10.32 40.108 8.34 40.108H7.53C5.622 40.108 4.668 39.19 4.668 37.354V32.278ZM14.982 25.582C15.162 25.582 15.306 25.528 15.414 25.42C15.558 25.276 15.63 25.114 15.63 24.934V19.534C15.63 19.102 15.414 18.886 14.982 18.886H11.958C11.526 18.886 11.31 19.102 11.31 19.534V24.934C11.31 25.366 11.526 25.582 11.958 25.582H14.982ZM33.3534 8.95C33.3534 7.582 33.6954 6.592 34.3794 5.98C35.0994 5.332 36.1254 5.008 37.4574 5.008H38.5914C39.9234 5.008 40.9314 5.332 41.6154 5.98C42.3354 6.592 42.6954 7.582 42.6954 8.95V26.392C42.6954 27.76 42.7854 28.876 42.9654 29.74C43.1454 30.604 43.4334 31.27 43.8294 31.738C44.2254 32.206 44.7294 32.53 45.3414 32.71C45.9534 32.854 46.6914 32.926 47.5554 32.926C48.4194 32.926 49.1574 32.854 49.7694 32.71C50.3814 32.53 50.8674 32.206 51.2274 31.738C51.6234 31.27 51.9114 30.604 52.0914 29.74C52.2714 28.876 52.3614 27.76 52.3614 26.392V8.95C52.3614 7.582 52.7034 6.592 53.3874 5.98C54.1074 5.332 55.1334 5.008 56.4654 5.008H57.5994C58.9314 5.008 59.9394 5.332 60.6234 5.98C61.3434 6.592 61.7034 7.582 61.7034 8.95V27.256C61.7034 29.956 61.2894 32.17 60.4614 33.898C59.6694 35.626 58.6074 36.994 57.2754 38.002C55.9434 39.01 54.4314 39.694 52.7394 40.054C51.0474 40.45 49.3194 40.648 47.5554 40.648C45.6114 40.648 43.7754 40.486 42.0474 40.162C40.3554 39.838 38.8614 39.208 37.5654 38.272C36.2694 37.3 35.2434 35.95 34.4874 34.222C33.7314 32.458 33.3534 30.136 33.3534 27.256V8.95ZM67.6797 16.456C67.6797 15.124 68.0217 14.17 68.7057 13.594C69.3897 12.982 70.3797 12.676 71.6757 12.676H72.4857C73.6737 12.676 74.4657 12.928 74.8617 13.432C75.2937 13.9 75.5997 14.44 75.7797 15.052L75.8877 15.43C75.9597 15.646 76.0317 15.754 76.1037 15.754C76.1757 15.754 76.2297 15.754 76.2657 15.754C76.3017 15.718 76.3737 15.628 76.4817 15.484C77.4537 14.224 78.5517 13.396 79.7757 13C81.0357 12.568 82.2957 12.352 83.5557 12.352C86.6877 12.352 88.9377 13.234 90.3057 14.998C91.6737 16.726 92.3577 19.21 92.3577 22.45V36.328C92.3577 37.66 92.0157 38.632 91.3317 39.244C90.6477 39.82 89.6757 40.108 88.4157 40.108H87.3897C86.1297 40.108 85.1577 39.82 84.4737 39.244C83.7897 38.632 83.4477 37.66 83.4477 36.328V24.232C83.4477 22.36 83.2137 21.064 82.7457 20.344C82.2777 19.588 81.3057 19.21 79.8297 19.21C78.5697 19.21 77.5977 19.678 76.9137 20.614C76.6977 20.902 76.5897 21.244 76.5897 21.64V36.328C76.5897 37.66 76.2477 38.632 75.5637 39.244C74.8797 39.82 73.9077 40.108 72.6477 40.108H71.6217C70.3617 40.108 69.3897 39.82 68.7057 39.244C68.0217 38.632 67.6797 37.66 67.6797 36.328V16.456ZM102.432 9.76C100.92 9.76 99.7505 9.436 98.9225 8.788C98.0945 8.104 97.6805 6.898 97.6805 5.17C97.6805 3.406 98.0945 2.2 98.9225 1.552C99.7505 0.868 100.92 0.526 102.432 0.526C103.944 0.526 105.114 0.868 105.942 1.552C106.806 2.2 107.238 3.406 107.238 5.17C107.238 6.898 106.806 8.104 105.942 8.788C105.114 9.436 103.944 9.76 102.432 9.76ZM97.9505 16.672C97.9505 15.34 98.2925 14.386 98.9765 13.81C99.6605 13.198 100.65 12.892 101.946 12.892H102.918C104.178 12.892 105.15 13.198 105.834 13.81C106.518 14.386 106.86 15.34 106.86 16.672V36.328C106.86 37.66 106.518 38.632 105.834 39.244C105.15 39.82 104.178 40.108 102.918 40.108H101.892C100.632 40.108 99.6605 39.82 98.9765 39.244C98.2925 38.632 97.9505 37.66 97.9505 36.328V16.672ZM113.362 8.95C113.362 7.582 113.704 6.592 114.388 5.98C115.108 5.332 116.134 5.008 117.466 5.008H118.6C119.932 5.008 120.94 5.332 121.624 5.98C122.344 6.592 122.704 7.582 122.704 8.95V31.468C122.704 31.9 122.92 32.116 123.352 32.116H132.64C134.8 32.116 135.88 33.268 135.88 35.572V36.598C135.88 38.866 134.8 40 132.64 40H116.872C115.792 40 114.928 39.676 114.28 39.028C113.668 38.38 113.362 37.534 113.362 36.49V8.95ZM137.78 26.5C137.78 23.872 138.14 21.658 138.86 19.858C139.58 18.058 140.534 16.6 141.722 15.484C142.91 14.368 144.26 13.576 145.772 13.108C147.32 12.604 148.904 12.352 150.524 12.352C152.216 12.352 153.818 12.586 155.33 13.054C156.878 13.486 158.228 14.242 159.38 15.322C160.568 16.402 161.504 17.86 162.188 19.696C162.908 21.496 163.268 23.764 163.268 26.5C163.268 29.128 162.908 31.342 162.188 33.142C161.468 34.942 160.514 36.4 159.326 37.516C158.138 38.632 156.77 39.442 155.222 39.946C153.71 40.414 152.144 40.648 150.524 40.648C148.832 40.648 147.212 40.432 145.664 40C144.152 39.568 142.802 38.812 141.614 37.732C140.462 36.652 139.526 35.212 138.806 33.412C138.122 31.576 137.78 29.272 137.78 26.5ZM150.524 33.844C151.172 33.844 151.73 33.772 152.198 33.628C152.702 33.448 153.116 33.106 153.44 32.602C153.8 32.098 154.052 31.36 154.196 30.388C154.376 29.416 154.466 28.12 154.466 26.5C154.466 24.88 154.376 23.584 154.196 22.612C154.052 21.64 153.8 20.902 153.44 20.398C153.116 19.894 152.702 19.57 152.198 19.426C151.73 19.246 151.172 19.156 150.524 19.156C149.876 19.156 149.3 19.246 148.796 19.426C148.328 19.57 147.914 19.894 147.554 20.398C147.23 20.902 146.978 21.64 146.798 22.612C146.654 23.584 146.582 24.88 146.582 26.5C146.582 28.12 146.654 29.416 146.798 30.388C146.978 31.36 147.23 32.098 147.554 32.602C147.914 33.106 148.328 33.448 148.796 33.628C149.3 33.772 149.876 33.844 150.524 33.844ZM176.793 40.648C173.301 40.648 170.637 39.514 168.801 37.246C166.965 34.942 166.047 31.432 166.047 26.716C166.047 24.556 166.299 22.594 166.803 20.83C167.307 19.066 168.063 17.572 169.071 16.348C170.115 15.088 171.393 14.134 172.905 13.486C174.417 12.802 176.199 12.46 178.251 12.46C179.259 12.46 180.033 12.496 180.573 12.568C181.113 12.64 181.509 12.676 181.761 12.676C182.121 12.676 182.301 12.496 182.301 12.136V5.764C182.301 4.432 182.643 3.478 183.327 2.902C184.011 2.29 185.001 1.984 186.297 1.984H187.269C188.529 1.984 189.501 2.29 190.185 2.902C190.869 3.478 191.211 4.432 191.211 5.764V36.76C191.211 38.092 190.887 39.064 190.239 39.676C189.591 40.252 188.655 40.54 187.431 40.54H186.567C185.595 40.54 184.857 40.378 184.353 40.054C183.885 39.766 183.561 39.316 183.381 38.704L183.273 38.38C183.237 38.2 183.147 38.11 183.003 38.11C182.895 38.11 182.805 38.146 182.733 38.218C182.049 38.902 181.203 39.478 180.195 39.946C179.223 40.414 178.089 40.648 176.793 40.648ZM179.385 33.79C179.781 33.79 180.177 33.736 180.573 33.628C181.005 33.484 181.401 33.322 181.761 33.142C182.121 32.998 182.301 32.71 182.301 32.278V20.128C182.301 19.984 182.247 19.84 182.139 19.696C182.031 19.516 181.887 19.39 181.707 19.318C181.311 19.138 180.843 19.012 180.303 18.94C179.799 18.868 179.349 18.832 178.953 18.832C178.305 18.832 177.729 18.904 177.225 19.048C176.721 19.192 176.289 19.516 175.929 20.02C175.605 20.524 175.353 21.262 175.173 22.234C174.993 23.206 174.903 24.538 174.903 26.23C174.903 27.994 174.993 29.38 175.173 30.388C175.353 31.396 175.623 32.152 175.983 32.656C176.379 33.16 176.847 33.484 177.387 33.628C177.963 33.736 178.629 33.79 179.385 33.79ZM195.309 37.138C195.309 36.526 195.417 35.914 195.633 35.302C195.849 34.69 196.137 34.096 196.497 33.52L204.813 20.236C204.993 19.948 205.083 19.732 205.083 19.588C205.083 19.444 204.957 19.372 204.705 19.372H198.711C197.919 19.372 197.235 19.12 196.659 18.616C196.119 18.112 195.849 17.428 195.849 16.564V15.862C195.849 14.998 196.119 14.314 196.659 13.81C197.235 13.27 197.919 13 198.711 13H213.831C214.515 13 215.055 13.234 215.451 13.702C215.883 14.134 216.099 14.692 216.099 15.376V15.808C216.099 16.492 215.991 17.158 215.775 17.806C215.559 18.418 215.253 19.03 214.857 19.642L206.433 32.872C206.289 33.052 206.217 33.232 206.217 33.412C206.217 33.556 206.343 33.628 206.595 33.628H213.885C215.613 33.628 216.477 34.6 216.477 36.544V37.3C216.477 39.1 215.613 40 213.885 40H197.577C196.893 40 196.335 39.784 195.903 39.352C195.507 38.884 195.309 38.308 195.309 37.624V37.138Z" fill="white" fill-opacity="0.8"/>
</svg>
